<svg xmlns="http://www.w3.org/2000/svg" viewBox="0 0 48 48"><rect width="48" height="48" fill="#0f1c2c"/><svg x="7" y="7" width="34" height="34" viewBox="313 218 280 330"><path fill="#C9A84C" d="M386.575 399.012C391.409 403.361 401.492 414.785 406.239 419.893C420.394 435.344 434.688 450.668 449.119 465.863C429.543 484.89 406.348 510.593 387.849 530.964C384.286 528.98 333.021 472.231 326.117 464.743C346.103 444.027 367.087 420.436 386.575 399.012Z"/><path fill="#C9A84C" d="M388.68 236.986C408.261 256.148 428.254 281.878 448.37 301.578C428.971 323.099 405.73 348.027 387.716 370.16C383.133 365.923 374.413 355.927 369.761 350.948C355.705 335.922 341.759 320.794 327.923 305.565C347.546 284.742 369.518 258.891 388.68 236.986Z"/><path fill="#C9A84C" d="M520.642 402.46C525.841 406.416 531.882 413.896 536.82 418.469C551.714 432.263 567.657 451.477 582.779 464.545C562.311 486.378 541.978 508.337 521.78 530.42C514.873 524.517 503.318 511.919 496.451 504.75C485.165 492.967 470.415 479.212 460.256 467.036C479.338 445.819 501 423.85 520.642 402.46Z"/><path fill="#C9A84C" d="M521.33 237.383C522.797 238.413 526.394 242.832 527.788 244.321C545.884 263.639 563.157 283.952 581.434 303.08C561.082 323.466 540.71 345.095 520.504 365.799C516.191 361.976 504.842 348.692 500.184 343.576C487.137 329.247 473.496 314.877 460.701 300.405C481.131 279.947 501.198 256.872 521.33 237.383Z"/><path fill="#C9A84C" d="M324.097 327.96C326.632 329.825 338.361 342.302 341.088 345.146C353.712 358.265 366.241 371.475 378.674 384.775C371.557 393.318 358.887 406.013 350.877 414.617L324.068 442.891C323.036 407.195 323.704 363.875 324.097 327.96Z"/><path fill="#C9A84C" d="M401.981 227.595C437.245 227.871 472.51 227.963 507.775 227.874C498.513 237.975 489.15 247.984 479.687 257.897C471.233 267.052 462.73 276.162 454.179 285.226C437.38 268.084 418.29 245.707 401.981 227.595Z"/><path fill="#C9A84C" d="M454.642 482.948C472.467 500.769 490.114 518.766 507.581 536.938L457.57 536.846L402.762 536.964C418.45 518.908 438.083 501.536 454.642 482.948Z"/></svg></svg>